<svg width="1692.0000000000002" height="517" xmlns="http://www.w3.org/2000/svg">
 <clipPath id="a">
  <path id="svg_1" d="m159,5841l1692,0l0,517l-1692,0l0,-517z"/>
 </clipPath>

 <g>
  <title>background</title>
  <rect fill="none" id="canvas_background" height="402" width="582" y="-1" x="-1"/>
 </g>
 <g>
  <title>Layer 1</title>
  <path id="svg_3" fill="#445469" d="m-21.41,552c62.21,-79.011 157.84,-232.31 251.61,-305.49c347.561,-270.678 504.052,31.946 1066.283,-204.393c356.452,-149.838 405.56,239.187 393.783,508.735l-1711.676,1.148z"/>
  <path id="svg_4" opacity="0.05" fill="#dcb493" d="m243.484996,724.434043c-41.4,-185.711 96.459,-247.977 228.027,-344.267c255.548,-186.624 370.256,-9.856 783.643,-172.8s264.57,517.071 264.57,517.071l-1276.24,-0.004z"/>
  <path id="svg_5" fill="#53647f" d="m1656.316996,724.433043c41.4,-185.71 -96.459,-247.977 -228.027,-344.266c-255.548,-186.623 -370.257,-9.856 -783.643,-172.804s-264.57,517.07 -264.57,517.07l1276.24,0z"/>
 </g>
</svg>