<svg width="1170" height="256" xmlns="http://www.w3.org/2000/svg">

 <clipPath id="b">
  <rect id="svg_1" x="0" y="0.493" width="1170" rx="29" height="256"/>
 </clipPath>
 <g>
  <title>background</title>
  <rect fill="none" id="canvas_background" height="402" width="582" y="-1" x="-1"/>
 </g>
 <g>
  <title>Layer 1</title>
  <rect id="svg_2" width="1170" rx="29" height="256" fill="#445469"/>
  <path id="svg_4" fill="#53647f" d="m0,106.438997l9.75,14.277c9.75,14.277 29.25,42.831 48.75,23.825c19.5,-19.363 39,-85.394 58.5,-99.939c19.5,-14.009 39,23.468 58.5,38.013c19.5,14.009 39,5.086 58.5,0c19.5,-4.729 39,-4.729 58.5,-14.277c19.5,-9.191 39,-28.822 58.5,-4.729s39,90.123 58.5,123.763c19.5,33.283 39,33.283 58.5,4.729s39,-85.662 58.5,-114.216s39,-28.554 58.5,-38.1c19.5,-9.191 39,-28.822 58.5,-4.729s39,90.124 58.5,123.764c19.5,33.283 39,33.283 58.5,4.729s39,-85.662 58.5,-104.668c19.5,-19.363 39,0.268 58.5,28.554c19.5,28.822 39,66.3 58.5,95.121c19.5,28.286 39,47.917 58.5,14.277c19.5,-33.283 39,-118.945 58.5,-128.493c19.5,-9.191 39,56.84 58.5,57.108c19.5,-0.268 39,-66.3 48.75,-99.939l9.75,-33.286l0,-28.554l-1170,0l0,142.77z"/>
 </g>
</svg>