<svg width="494.836" height="638.601" xmlns="http://www.w3.org/2000/svg">
 <clipPath id="a">
  <path id="svg_1" d="m319.3,0c176.345,0 -67.066,208.923 88.593,319.3s87.752,319.3 -88.593,319.3s-319.3,-142.955 -319.3,-319.3s142.956,-319.3 319.3,-319.3z"/>
 </clipPath>

 <g>
  <title>background</title>
  <rect fill="none" id="canvas_background" height="402" width="582" y="-1" x="-1"/>
 </g>
 <g>
  <title>Layer 1</title>
  <path id="svg_2" fill="#53647f" d="m319.3,0.902149c176.345,0 -67.066,208.923 88.593,319.3s87.752,319.3 -88.593,319.3s-319.3,-142.955 -319.3,-319.3s142.956,-319.3 319.3,-319.3z"/>
  <path id="svg_4" opacity="0.3" fill="#dcb493" d="m175.536,638.6c-176.345,0 67.064,-208.922 -88.593,-319.3s-87.752,-319.3 88.593,-319.3s319.3,142.956 319.3,319.3s-142.955,319.3 -319.3,319.3z"/>
 </g>
</svg>