<svg width="2044" height="473" xmlns="http://www.w3.org/2000/svg" xmlns:xlink="http://www.w3.org/1999/xlink" xml:space="preserve" overflow="hidden"><defs><clipPath id="clip0"><rect x="1136" y="847" width="2044" height="473"/></clipPath><clipPath id="clip1"><rect x="1138" y="852" width="467" height="466"/></clipPath><clipPath id="clip2"><rect x="1138" y="852" width="467" height="466"/></clipPath><clipPath id="clip3"><rect x="1138" y="852" width="467" height="466"/></clipPath></defs><g clip-path="url(#clip0)" transform="translate(-1136 -847)"><g clip-path="url(#clip1)"><g clip-path="url(#clip2)"><g clip-path="url(#clip3)"><path d="M134.703 398.557C112.677 396.1 90.4695 387.908 70.9011 374.893 59.2511 367.157 41.3211 349.227 33.7668 337.668 9.10156 300.26 3.00351 256.027 16.7469 214.251 20.4785 203.147 30.2172 184.307 37.0433 175.205 49.8765 158.094 53.5172 155.182 145.898 88.0121 195.683 51.7879 232.727 25.4844 233.546 25.6664 235.548 26.0305 237.096 28.4879 236.367 30.2172 236.094 30.9453 197.868 59.1601 151.45 92.9269 61.2535 158.367 55.2465 163.191 43.1414 179.21 36.4972 188.129 27.6687 204.785 24.1191 215.161 7.55429 263.854 19.7504 316.552 55.9746 352.685 78.6375 375.348 105.669 388.09 138.162 391.458 152.178 392.914 168.561 391.549 183.214 387.726 194.955 384.723 195.228 384.632 216.89 374.711 229.632 368.977 233.455 367.521 234.638 368.34 237.096 369.796 237.005 372.891 234.638 374.347 230.451 377.078 201.873 389.638 194.136 392.186 175.205 398.557 154.271 400.742 134.703 398.557Z" fill="#44536A" fill-rule="nonzero" fill-opacity="1" transform="matrix(1 0 0 -1 1139 1318)"/><path d="M294.435 396.919C290.34 395.099 288.064 391.458 288.064 386.634 288.064 382.538 288.428 381.81 291.523 378.989L294.89 375.894 294.89 353.231 294.89 330.66 274.23 327.201C262.762 325.381 252.932 323.378 252.386 322.923 251.658 322.286 251.203 319.647 251.203 315.733 251.203 309.635 251.112 309.362 247.835 306.358 244.741 303.537 244.377 302.809 244.377 298.622 244.377 294.617 244.741 293.616 247.38 291.068 249.929 288.519 250.93 288.064 254.844 288.064 258.757 288.064 259.758 288.519 262.307 291.068 264.946 293.616 265.31 294.617 265.31 298.622 265.31 302.809 264.946 303.537 261.943 306.358 258.939 308.998 258.484 309.999 258.484 313.367L258.484 317.189 279.236 320.739C290.613 322.65 300.442 324.653 301.08 325.108 301.899 325.836 302.172 332.116 302.172 350.956L302.172 375.894 305.63 378.989C308.634 381.81 308.998 382.538 308.998 386.725 308.998 390.639 308.543 391.731 306.176 394.188 303.173 397.192 297.803 398.375 294.435 396.919ZM301.262 389.092C303.628 386.179 300.078 381.719 296.984 383.722 293.798 385.724 294.89 390.457 298.531 390.457 299.441 390.457 300.624 389.82 301.262 389.092ZM257.574 300.806C259.94 297.894 256.391 293.434 253.296 295.437 250.111 297.439 251.203 302.172 254.844 302.172 255.754 302.172 256.937 301.535 257.574 300.806Z" fill="#44536A" fill-rule="nonzero" fill-opacity="1" transform="matrix(1 0 0 -1 1139 1318)"/><path d="M335.119 393.733C332.025 390.821 331.752 390.184 331.752 385.542L331.752 380.445 324.197 372.891 316.734 365.428 316.734 355.598 316.734 345.859 313.367 342.765C310.272 339.943 309.908 339.215 309.908 335.028 309.908 331.024 310.272 330.022 312.912 327.474 315.46 324.926 316.461 324.471 320.375 324.471 324.289 324.471 325.29 324.926 327.838 327.474 330.478 330.022 330.842 331.024 330.842 335.028 330.842 339.215 330.478 339.943 327.474 342.765L324.015 345.859 324.015 354.324 324.015 362.788 330.387 369.068C336.758 375.348 336.849 375.439 341.855 375.439 346.496 375.439 347.133 375.712 350.046 378.807 352.412 381.355 353.14 383.085 353.14 385.542 353.14 389.547 351.047 393.369 347.68 395.372 343.402 397.829 339.033 397.283 335.119 393.733ZM344.949 388.181C347.315 385.269 343.766 380.809 340.671 382.812 337.486 384.814 338.578 389.547 342.219 389.547 343.129 389.547 344.312 388.91 344.949 388.181ZM323.105 337.213C325.472 334.3 321.922 329.84 318.828 331.843 315.642 333.845 316.734 338.578 320.375 338.578 321.285 338.578 322.468 337.941 323.105 337.213Z" fill="#44536A" fill-rule="nonzero" fill-opacity="1" transform="matrix(1 0 0 -1 1139 1318)"/><path d="M367.248 385.087C363.152 383.267 360.877 379.626 360.877 374.802 360.877 370.706 361.241 369.978 364.335 367.157L367.703 364.062 367.703 314.914 367.703 265.765 364.608 269.224C361.787 272.228 361.059 272.592 356.872 272.592 352.867 272.592 351.866 272.228 349.318 269.588 346.769 267.04 346.314 266.039 346.314 262.125 346.314 258.211 346.769 257.21 349.318 254.662 351.866 252.022 352.867 251.658 356.872 251.658 361.059 251.658 361.787 252.022 364.608 255.117 366.793 257.483 368.522 258.484 370.251 258.484 371.617 258.484 373.255 258.939 373.892 259.576 374.711 260.396 374.984 273.411 374.984 312.365L374.984 364.062 378.443 367.157C381.446 369.978 381.81 370.706 381.81 374.893 381.81 378.807 381.355 379.899 378.989 382.356 375.985 385.36 370.615 386.543 367.248 385.087ZM374.074 377.26C376.44 374.347 372.891 369.887 369.796 371.89 366.611 373.892 367.703 378.625 371.344 378.625 372.254 378.625 373.437 377.988 374.074 377.26ZM359.512 264.4C361.878 261.488 358.328 257.028 355.234 259.03 352.048 261.033 353.14 265.765 356.781 265.765 357.691 265.765 358.874 265.128 359.512 264.4Z" fill="#44536A" fill-rule="nonzero" fill-opacity="1" transform="matrix(1 0 0 -1 1139 1318)"/><path d="M250.748 381.446C246.652 379.626 244.377 375.985 244.377 371.253 244.377 367.43 244.832 366.429 247.38 363.88 249.929 361.241 250.93 360.877 254.935 360.877 259.121 360.877 259.849 361.241 262.671 364.335 265.765 367.703 265.857 367.703 273.047 367.703L280.328 367.703 280.328 356.781 280.328 345.859 276.687 345.859C273.684 345.859 272.592 346.405 269.952 349.318 267.131 352.321 266.403 352.685 262.216 352.685 258.211 352.685 257.21 352.321 254.662 349.682 252.113 347.133 251.658 346.132 251.658 342.219 251.658 338.305 252.113 337.304 254.662 334.755 257.21 332.116 258.211 331.752 262.216 331.752 266.403 331.752 267.131 332.116 269.952 335.21 272.956 338.487 273.229 338.578 279.236 338.578 282.876 338.578 285.88 339.033 286.517 339.67 288.064 341.217 288.064 372.345 286.517 373.892 285.789 374.62 282.057 374.984 275.595 374.984L265.765 374.984 262.853 378.261C259.667 381.628 254.48 383.085 250.748 381.446ZM257.574 373.619C259.94 370.706 256.391 366.247 253.296 368.249 250.111 370.251 251.203 374.984 254.844 374.984 255.754 374.984 256.937 374.347 257.574 373.619ZM264.855 344.494C267.222 341.581 263.672 337.122 260.578 339.124 257.392 341.126 258.484 345.859 262.125 345.859 263.035 345.859 264.218 345.222 264.855 344.494Z" fill="#44536A" fill-rule="nonzero" fill-opacity="1" transform="matrix(1 0 0 -1 1139 1318)"/><path d="M391.003 374.438C389.729 373.255 389.547 368.886 389.547 341.217L389.547 309.453 386.179 306.358C383.085 303.537 382.72 302.809 382.72 298.622 382.72 294.617 383.085 293.616 385.724 291.068 388.272 288.519 389.274 288.064 393.187 288.064 397.101 288.064 398.102 288.519 400.651 291.068 403.29 293.616 403.654 294.617 403.654 298.622 403.654 302.809 403.29 303.537 400.286 306.358L396.828 309.453 396.828 336.758C396.828 355.689 397.101 364.062 397.829 364.062 400.104 364.062 420.31 342.31 426.226 333.572L432.233 324.471 429.138 324.197C426.59 323.924 425.589 324.471 422.858 327.383 420.037 330.478 419.309 330.842 415.122 330.842 411.117 330.842 410.116 330.478 407.568 327.838 405.019 325.29 404.564 324.289 404.564 320.375 404.564 316.461 405.019 315.46 407.568 312.912 410.116 310.272 411.117 309.908 415.122 309.908 419.309 309.908 420.037 310.272 422.858 313.367 425.862 316.643 426.135 316.734 432.233 316.734 435.692 316.734 439.15 317.007 439.969 317.28 445.248 319.283 433.598 338.942 416.851 356.235 408.933 364.426 395.099 375.894 393.187 375.894 392.732 375.894 391.731 375.257 391.003 374.438ZM417.762 322.65C420.128 319.738 416.578 315.278 413.484 317.28 410.298 319.283 411.39 324.015 415.031 324.015 415.941 324.015 417.124 323.378 417.762 322.65ZM395.918 300.806C398.284 297.894 394.735 293.434 391.64 295.437 388.454 297.439 389.547 302.172 393.187 302.172 394.097 302.172 395.281 301.535 395.918 300.806Z" fill="#44536A" fill-rule="nonzero" fill-opacity="1" transform="matrix(1 0 0 -1 1139 1318)"/><path d="M345.404 366.884C341.308 365.063 339.033 361.423 339.033 356.599 339.033 352.503 339.397 351.775 342.492 348.954L345.859 345.859 345.859 331.297 345.859 316.734 325.108 316.734C310.181 316.734 304.083 316.461 303.264 315.642 301.717 314.095 301.717 231.999 303.264 230.451 303.992 229.723 309.362 229.359 321.467 229.359L338.578 229.359 341.672 225.901C344.494 222.897 345.222 222.533 349.409 222.533 353.413 222.533 354.415 222.897 356.963 225.537 359.512 228.085 359.967 229.086 359.967 233 359.967 236.914 359.512 237.915 356.963 240.463 354.415 243.103 353.413 243.467 349.409 243.467 345.222 243.467 344.494 243.103 341.672 240.099L338.578 236.641 324.015 236.641 309.453 236.641 309.453 273.047 309.453 309.453 330.205 309.453C345.131 309.453 351.229 309.726 352.048 310.545 352.776 311.273 353.14 316.643 353.14 328.748L353.14 345.859 356.599 348.954C359.603 351.775 359.967 352.503 359.967 356.69 359.967 360.604 359.512 361.696 357.145 364.153 354.142 367.157 348.772 368.34 345.404 366.884ZM352.23 359.056C354.597 356.144 351.047 351.684 347.953 353.687 344.767 355.689 345.859 360.422 349.5 360.422 350.41 360.422 351.593 359.785 352.23 359.056ZM352.23 235.275C354.597 232.363 351.047 227.903 347.953 229.905 344.767 231.908 345.859 236.641 349.5 236.641 350.41 236.641 351.593 236.003 352.23 235.275Z" fill="#44536A" fill-rule="nonzero" fill-opacity="1" transform="matrix(1 0 0 -1 1139 1318)"/><path d="M279.873 315.915C275.777 314.095 273.502 310.454 273.502 305.63 273.502 301.535 273.866 300.806 276.96 297.985L280.328 294.89 280.328 273.047 280.328 251.203 276.96 248.108C273.866 245.287 273.502 244.559 273.502 240.372 273.502 236.367 273.866 235.366 276.505 232.818 279.054 230.269 280.055 229.814 283.969 229.814 287.882 229.814 288.883 230.269 291.432 232.818 294.071 235.366 294.435 236.367 294.435 240.372 294.435 244.559 294.071 245.287 291.068 248.108L287.609 251.203 287.609 273.047 287.609 294.89 291.068 297.985C294.071 300.806 294.435 301.535 294.435 305.721 294.435 309.635 293.98 310.727 291.614 313.185 288.61 316.188 283.24 317.371 279.873 315.915ZM286.699 308.088C289.065 305.175 285.516 300.715 282.421 302.718 279.236 304.72 280.328 309.453 283.969 309.453 284.879 309.453 286.062 308.816 286.699 308.088ZM286.699 242.557C289.065 239.644 285.516 235.184 282.421 237.187 279.236 239.189 280.328 243.922 283.969 243.922 284.879 243.922 286.062 243.285 286.699 242.557Z" fill="#44536A" fill-rule="nonzero" fill-opacity="1" transform="matrix(1 0 0 -1 1139 1318)"/><path d="M345.313 301.353C344.312 300.897 342.401 299.259 341.035 297.712 338.851 295.073 338.305 294.89 332.48 294.89 328.839 294.89 325.745 294.435 325.108 293.798 324.38 293.07 324.015 289.339 324.015 282.876L324.015 273.047 320.648 269.952C317.553 267.131 317.189 266.403 317.189 262.216 317.189 258.211 317.553 257.21 320.193 254.662 322.741 252.113 323.742 251.658 327.656 251.658 331.57 251.658 332.571 252.113 335.119 254.662 337.759 257.21 338.123 258.211 338.123 262.216 338.123 266.403 337.759 267.131 334.755 269.952 331.297 273.047 331.297 273.138 331.297 280.328L331.297 287.609 334.937 287.609C337.941 287.609 339.033 287.063 341.672 284.242 344.494 281.147 345.222 280.783 349.409 280.783 353.413 280.783 354.415 281.147 356.963 283.787 359.512 286.335 359.967 287.336 359.967 291.25 359.967 295.073 359.512 296.165 357.145 298.622 354.142 301.626 348.863 302.809 345.313 301.353ZM352.23 293.525C354.597 290.613 351.047 286.153 347.953 288.155 344.767 290.158 345.859 294.89 349.5 294.89 350.41 294.89 351.593 294.253 352.23 293.525ZM330.387 264.4C332.753 261.488 329.203 257.028 326.109 259.03 322.923 261.033 324.015 265.765 327.656 265.765 328.566 265.765 329.749 265.128 330.387 264.4Z" fill="#44536A" fill-rule="nonzero" fill-opacity="1" transform="matrix(1 0 0 -1 1139 1318)"/><path d="M425.498 301.353C421.402 299.532 419.127 295.892 419.127 291.159 419.127 287.336 419.582 286.335 422.13 283.787 424.679 281.147 425.68 280.783 429.685 280.783 433.871 280.783 434.599 281.147 437.421 284.242 440.879 287.973 445.43 288.974 446.34 286.062 447.251 283.058 448.707 272.592 448.707 269.224L448.707 265.765 430.049 265.765 411.39 265.765 408.296 269.224C405.474 272.228 404.746 272.592 400.56 272.592 396.555 272.592 395.554 272.228 393.005 269.588 390.457 267.04 390.002 266.039 390.002 262.125 390.002 258.211 390.457 257.21 393.005 254.662 395.554 252.022 396.555 251.658 400.56 251.658 404.746 251.658 405.474 252.022 408.296 255.117L411.39 258.484 432.597 258.484C444.156 258.484 454.259 258.848 454.987 259.303 456.625 260.396 456.443 269.406 454.532 281.147 452.62 293.616 452.074 294.344 445.703 294.708 441.061 294.981 440.151 295.346 437.512 298.167 434.417 301.535 429.138 302.991 425.498 301.353ZM432.324 293.525C434.69 290.613 431.141 286.153 428.046 288.155 424.861 290.158 425.953 294.89 429.594 294.89 430.504 294.89 431.687 294.253 432.324 293.525ZM403.199 264.4C405.565 261.488 402.016 257.028 398.921 259.03 395.736 261.033 396.828 265.765 400.469 265.765 401.379 265.765 402.562 265.128 403.199 264.4Z" fill="#44536A" fill-rule="nonzero" fill-opacity="1" transform="matrix(1 0 0 -1 1139 1318)"/><path d="M250.748 279.509C246.652 277.689 244.377 274.048 244.377 269.224 244.377 265.128 244.741 264.4 247.835 261.579L251.203 258.484 251.203 244.832 251.203 231.271 262.034 223.079C272.683 214.979 272.774 214.888 273.32 210.701 273.957 204.33 277.871 200.689 284.06 200.689 288.246 200.689 288.974 201.053 291.887 204.239 294.799 207.424 295.073 208.062 294.617 211.793 293.798 219.074 286.972 223.625 280.419 221.35 277.871 220.44 277.142 220.804 268.132 227.63L258.484 234.82 258.484 246.652 258.484 258.484 261.943 261.579C264.946 264.4 265.31 265.128 265.31 269.315 265.31 273.229 264.855 274.321 262.489 276.778 259.485 279.782 254.115 280.965 250.748 279.509ZM257.574 271.681C259.94 268.769 256.391 264.309 253.296 266.312 250.111 268.314 251.203 273.047 254.844 273.047 255.754 273.047 256.937 272.41 257.574 271.681ZM286.699 213.432C289.065 210.519 285.516 206.059 282.421 208.062 279.236 210.064 280.328 214.797 283.969 214.797 284.879 214.797 286.062 214.16 286.699 213.432Z" fill="#44536A" fill-rule="nonzero" fill-opacity="1" transform="matrix(1 0 0 -1 1139 1318)"/><path d="M439.969 250.384C438.968 249.929 437.057 248.29 435.692 246.743L433.325 243.922 401.652 243.922C378.17 243.922 369.614 243.649 368.795 242.83 368.067 242.101 367.703 237.551 367.703 228.267L367.703 214.797 345.859 214.797 324.015 214.797 320.921 218.255C318.099 221.259 317.371 221.623 313.185 221.623 309.18 221.623 308.179 221.259 305.63 218.619 303.082 216.071 302.627 215.07 302.627 211.156 302.627 207.242 303.082 206.241 305.63 203.693 308.179 201.053 309.18 200.689 313.185 200.689 317.371 200.689 318.099 201.053 320.921 204.148L324.015 207.516 348.408 207.516C366.156 207.516 373.073 207.789 373.892 208.608 374.62 209.336 374.984 213.887 374.984 223.17L374.984 236.641 404.109 236.641 433.234 236.641 436.329 233.273C439.15 230.178 439.878 229.814 444.065 229.814 448.07 229.814 449.071 230.178 451.619 232.818 454.168 235.366 454.623 236.367 454.623 240.281 454.623 244.104 454.168 245.196 451.801 247.653 448.798 250.657 443.519 251.84 439.969 250.384ZM446.886 242.557C449.253 239.644 445.703 235.184 442.609 237.187 439.423 239.189 440.515 243.922 444.156 243.922 445.066 243.922 446.249 243.285 446.886 242.557ZM315.824 213.432C318.19 210.519 314.641 206.059 311.546 208.062 308.361 210.064 309.453 214.797 313.094 214.797 314.004 214.797 315.187 214.16 315.824 213.432Z" fill="#44536A" fill-rule="nonzero" fill-opacity="1" transform="matrix(1 0 0 -1 1139 1318)"/><path d="M389.092 228.54C384.996 226.72 382.72 223.079 382.72 218.255 382.72 214.16 383.085 213.432 386.179 210.61 389.547 207.516 389.547 207.424 389.547 200.234L389.547 192.953 332.389 192.953C289.156 192.953 274.958 192.68 274.139 191.861 273.32 191.042 273.047 184.125 273.047 166.376L273.047 141.984 269.679 138.89C266.585 136.068 266.221 135.34 266.221 131.153 266.221 127.149 266.585 126.148 269.224 123.599 271.773 121.051 272.774 120.596 276.687 120.596 280.601 120.596 281.602 121.051 284.151 123.599 286.79 126.148 287.154 127.149 287.154 131.153 287.154 135.34 286.79 136.068 283.787 138.89L280.328 141.984 280.328 163.828 280.328 185.672 337.486 185.672C380.718 185.672 394.917 185.945 395.736 186.764 396.464 187.492 396.828 191.224 396.828 197.686L396.828 207.516 400.286 210.61C403.29 213.432 403.654 214.16 403.654 218.346 403.654 222.26 403.199 223.352 400.833 225.81 397.829 228.813 392.459 229.996 389.092 228.54ZM395.918 220.713C398.284 217.8 394.735 213.341 391.64 215.343 388.454 217.345 389.547 222.078 393.187 222.078 394.097 222.078 395.281 221.441 395.918 220.713ZM279.418 133.338C281.784 130.425 278.235 125.966 275.14 127.968 271.955 129.97 273.047 134.703 276.687 134.703 277.598 134.703 278.781 134.066 279.418 133.338Z" fill="#44536A" fill-rule="nonzero" fill-opacity="1" transform="matrix(1 0 0 -1 1139 1318)"/><path d="M416.669 223.352C413.666 221.805 411.39 217.709 411.39 214.16 411.39 211.065 414.212 206.15 416.76 204.785 418.581 203.875 418.672 203.056 418.672 188.493L418.672 173.203 408.842 163.737C402.835 157.912 391.64 148.901 379.899 140.437L360.877 126.603 360.604 130.607C360.331 134.248 360.604 134.885 363.789 137.798 366.884 140.619 367.248 141.347 367.248 145.534 367.248 149.539 366.884 150.54 364.244 153.088 361.696 155.637 360.695 156.092 356.781 156.092 352.867 156.092 351.866 155.637 349.318 153.088 346.678 150.54 346.314 149.539 346.314 145.534 346.314 141.347 346.678 140.619 349.773 137.798L353.14 134.703 353.14 126.239C353.14 117.683 353.869 115.59 356.69 115.59 358.328 115.59 397.92 144.26 408.023 152.633 411.572 155.546 417.033 160.916 420.128 164.556L425.953 171.2 425.953 187.492C425.953 203.056 426.044 203.875 427.864 204.785 430.413 206.15 433.234 211.065 433.234 214.16 433.234 222.26 424.042 227.448 416.669 223.352ZM425.043 216.162C426.317 214.615 425.498 211.52 423.586 210.792 421.584 210.064 418.672 211.793 418.672 213.705 418.672 217.163 422.858 218.801 425.043 216.162ZM359.512 147.9C361.878 144.988 358.328 140.528 355.234 142.53 352.048 144.533 353.14 149.266 356.781 149.266 357.691 149.266 358.874 148.628 359.512 147.9Z" fill="#44536A" fill-rule="nonzero" fill-opacity="1" transform="matrix(1 0 0 -1 1139 1318)"/><path d="M250.748 206.696C246.652 204.876 244.377 201.235 244.377 196.412 244.377 192.316 244.741 191.588 247.835 188.766L251.203 185.672 251.203 149.266 251.203 112.859 247.835 109.765C244.741 106.943 244.377 106.215 244.377 102.028 244.377 98.0238 244.741 97.0226 247.38 94.4742 249.929 91.9257 250.93 91.4707 254.844 91.4707 258.757 91.4707 259.758 91.9257 262.307 94.4742 264.946 97.0226 265.31 98.0238 265.31 102.028 265.31 106.215 264.946 106.943 261.943 109.765L258.484 112.859 258.484 149.266 258.484 185.672 261.943 188.766C264.946 191.588 265.31 192.316 265.31 196.503 265.31 200.416 264.855 201.508 262.489 203.966 259.485 206.969 254.115 208.153 250.748 206.696ZM257.574 198.869C259.94 195.957 256.391 191.497 253.296 193.499 250.111 195.501 251.203 200.234 254.844 200.234 255.754 200.234 256.937 199.597 257.574 198.869ZM257.574 104.213C259.94 101.3 256.391 96.8406 253.296 98.8429 250.111 100.845 251.203 105.578 254.844 105.578 255.754 105.578 256.937 104.941 257.574 104.213Z" fill="#44536A" fill-rule="nonzero" fill-opacity="1" transform="matrix(1 0 0 -1 1139 1318)"/><path d="M301.717 177.571C297.621 175.751 295.346 172.11 295.346 167.287 295.346 163.191 295.71 162.463 298.804 159.641L302.172 156.547 302.172 145.625 302.172 134.703 298.804 131.609C295.71 128.787 295.346 128.059 295.346 123.872 295.346 119.868 295.71 118.866 298.349 116.318 300.897 113.769 301.899 113.314 305.812 113.314 309.726 113.314 310.727 113.769 313.276 116.318 315.915 118.866 316.279 119.868 316.279 123.872 316.279 128.059 315.915 128.787 312.912 131.609L309.453 134.703 309.453 145.625 309.453 156.547 312.912 159.641C315.915 162.463 316.279 163.191 316.279 167.378 316.279 171.291 315.824 172.383 313.458 174.841 310.454 177.844 305.084 179.028 301.717 177.571ZM308.543 169.744C310.909 166.832 307.36 162.372 304.265 164.374 301.08 166.376 302.172 171.109 305.812 171.109 306.723 171.109 307.906 170.472 308.543 169.744ZM308.543 126.057C310.909 123.144 307.36 118.684 304.265 120.687 301.08 122.689 302.172 127.422 305.812 127.422 306.723 127.422 307.906 126.785 308.543 126.057Z" fill="#44536A" fill-rule="nonzero" fill-opacity="1" transform="matrix(1 0 0 -1 1139 1318)"/><path d="M374.438 177.571C373.437 177.116 371.526 175.478 370.16 173.931L367.794 171.109 350.683 171.109C338.487 171.109 333.117 170.745 332.389 170.017 331.57 169.198 331.297 163.646 331.297 150.449L331.297 131.973 323.469 120.232C315.915 108.855 315.551 108.491 312.001 108.035 304.447 107.034 299.896 98.3878 303.537 92.1078 307.178 85.9187 314.55 84.6445 319.829 89.2863 323.56 92.5628 324.653 96.6585 323.105 101.482 322.013 104.668 322.104 104.85 330.296 117.319L338.578 129.879 338.578 146.899 338.578 163.828 353.14 163.828 367.703 163.828 370.797 160.46C373.619 157.366 374.347 157.002 378.534 157.002 382.538 157.002 383.54 157.366 386.088 160.005 388.637 162.554 389.092 163.555 389.092 167.469 389.092 171.291 388.637 172.383 386.27 174.841 383.267 177.844 377.988 179.028 374.438 177.571ZM381.355 169.744C383.722 166.832 380.172 162.372 377.078 164.374 373.892 166.376 374.984 171.109 378.625 171.109 379.535 171.109 380.718 170.472 381.355 169.744ZM315.824 99.6621C318.19 96.7496 314.641 92.2898 311.546 94.2921 308.361 96.2945 309.453 101.027 313.094 101.027 314.004 101.027 315.187 100.39 315.824 99.6621Z" fill="#44536A" fill-rule="nonzero" fill-opacity="1" transform="matrix(1 0 0 -1 1139 1318)"/><path d="M279.873 112.04C275.777 110.22 273.502 106.579 273.502 101.755 273.502 97.6597 273.866 96.9316 276.96 94.1101L280.328 91.0156 280.328 79.3656 280.237 67.8066 270.134 60.5254C264.582 56.5207 259.667 53.1531 259.212 52.9711 258.848 52.789 258.484 54.7004 258.484 57.2488 258.484 61.4355 258.848 62.1636 261.943 64.9851 264.946 67.8066 265.31 68.5347 265.31 72.7214 265.31 76.7261 264.946 77.7273 262.307 80.2757 259.758 82.8242 258.757 83.2793 254.844 83.2793 250.93 83.2793 249.929 82.8242 247.38 80.2757 244.741 77.7273 244.377 76.7261 244.377 72.7214 244.377 68.5347 244.741 67.8066 247.835 64.9851L251.203 61.8906 251.203 53.3351C251.203 48.6023 251.476 44.1426 251.749 43.3234 252.932 40.2289 256.846 41.9582 270.134 51.5148 289.521 65.5312 287.609 62.6187 287.609 78.0004L287.609 91.0156 291.068 94.1101C294.071 96.9316 294.435 97.6597 294.435 101.846 294.435 105.76 293.98 106.852 291.614 109.31 288.61 112.313 283.24 113.496 279.873 112.04ZM286.699 104.213C289.065 101.3 285.516 96.8406 282.421 98.8429 279.236 100.845 280.328 105.578 283.969 105.578 284.879 105.578 286.062 104.941 286.699 104.213ZM257.574 75.0879C259.94 72.1754 256.391 67.7156 253.296 69.7179 250.111 71.7203 251.203 76.4531 254.844 76.4531 255.754 76.4531 256.937 75.816 257.574 75.0879Z" fill="#44536A" fill-rule="nonzero" fill-opacity="1" transform="matrix(1 0 0 -1 1139 1318)"/></g></g></g><text fill="#44546A" fill-opacity="1" font-family="Tenorite,Tenorite_MSFontService,sans-serif" font-style="normal" font-variant="normal" font-weight="400" font-stretch="normal" font-size="183" text-anchor="start" direction="ltr" writing-mode="lr-tb" unicode-bidi="normal" text-decoration="none" transform="matrix(1 0 0 1 1747.94 1142)">ICARE<tspan fill="#44546A" fill-opacity="1" font-family="Tenorite,Tenorite_MSFontService,sans-serif" font-style="normal" font-variant="normal" font-weight="400" font-stretch="normal" font-size="183" text-anchor="start" direction="ltr" writing-mode="lr-tb" unicode-bidi="normal" text-decoration="none" x="595.056" y="1">[INFRA] </tspan></text></g></svg>